<svg xmlns="http://www.w3.org/2000/svg" style="display:none">
  <symbol id="pdl-compass" viewBox="0 0 96 96">
    <circle cx="48" cy="48" r="34" fill="none" stroke="currentColor" stroke-width="3"/>
    <path d="M58 22 51 51 38 73 45 44z" fill="none" stroke="currentColor" stroke-width="3" stroke-linejoin="round"/>
    <circle cx="48" cy="48" r="4" fill="currentColor"/>
  </symbol>
  <symbol id="pdl-lantern" viewBox="0 0 96 96">
    <path d="M36 28h24l6 14v32H30V42z" fill="none" stroke="currentColor" stroke-width="3" stroke-linejoin="round"/>
    <path d="M39 28c0-8 18-8 18 0M40 50c4-10 12-10 16 0 5 12-3 19-8 19s-13-7-8-19z" fill="none" stroke="currentColor" stroke-width="3" stroke-linecap="round"/>
    <path d="M32 42h32" stroke="#d8bd65" stroke-width="3" stroke-linecap="round"/>
  </symbol>
  <symbol id="pdl-journal" viewBox="0 0 96 96">
    <path d="M26 18h38c6 0 10 4 10 10v50H34c-5 0-8-3-8-8z" fill="none" stroke="currentColor" stroke-width="3" stroke-linejoin="round"/>
    <path d="M34 18v60M44 34h18M44 46h16" stroke="currentColor" stroke-width="3" stroke-linecap="round"/>
    <path d="M65 18v22l-7-5-7 5V18" fill="none" stroke="#d8bd65" stroke-width="3" stroke-linejoin="round"/>
  </symbol>
  <symbol id="pdl-mountain" viewBox="0 0 96 96">
    <path d="M14 74 38 32l16 27 8-13 20 28z" fill="none" stroke="currentColor" stroke-width="3" stroke-linejoin="round"/>
    <path d="M38 32 42 50l-10-4M62 46l2 13-8-4" stroke="#d8bd65" stroke-width="3" stroke-linecap="round" stroke-linejoin="round"/>
  </symbol>
  <symbol id="pdl-olive-branch" viewBox="0 0 96 96">
    <path d="M24 74C36 56 50 40 72 22" fill="none" stroke="currentColor" stroke-width="3" stroke-linecap="round"/>
    <path d="M40 54c-12-2-17 5-18 15 11 0 18-4 18-15zM51 43c-10-6-18-1-22 8 10 4 18 2 22-8zM62 32c-7-8-16-6-22 1 8 7 16 7 22-1zM58 48c12-1 18 6 20 15-12 1-19-4-20-15zM68 36c10 0 15 6 16 14-10 0-16-5-16-14z" fill="none" stroke="#8c9165" stroke-width="3" stroke-linejoin="round"/>
  </symbol>
  <symbol id="pdl-branching-path" viewBox="0 0 96 96">
    <path d="M18 78c18-8 24-20 25-35 1-10 8-20 23-25" fill="none" stroke="currentColor" stroke-width="3" stroke-linecap="round"/>
    <path d="M43 48c12 1 22 9 30 24M47 38c-7-3-15-9-23-20" fill="none" stroke="#8c9165" stroke-width="3" stroke-linecap="round"/>
    <circle cx="18" cy="78" r="4" fill="#d8bd65"/>
    <circle cx="66" cy="18" r="4" fill="#d8bd65"/>
    <circle cx="73" cy="72" r="4" fill="#d8bd65"/>
  </symbol>
  <symbol id="pdl-folded-map" viewBox="0 0 96 96">
    <path d="M18 25 38 17l20 8 20-8v54l-20 8-20-8-20 8z" fill="none" stroke="currentColor" stroke-width="3" stroke-linejoin="round"/>
    <path d="M38 17v54M58 25v54" fill="none" stroke="currentColor" stroke-width="3" stroke-linecap="round"/>
    <path d="M27 56c10-16 25 11 41-10" fill="none" stroke="#8c9165" stroke-width="3" stroke-linecap="round"/>
    <path d="M66 32h.1M31 65h.1" stroke="#d8bd65" stroke-width="7" stroke-linecap="round"/>
  </symbol>
  <symbol id="pdl-open-notebook" viewBox="0 0 96 96">
    <path d="M18 24c11-5 22-5 30 1v47c-8-6-19-6-30-1zM48 25c8-6 19-6 30-1v47c-11-5-22-5-30 1z" fill="none" stroke="currentColor" stroke-width="3" stroke-linejoin="round"/>
    <path d="M29 38h9M29 50h10M58 38h10M58 50h8" stroke="#8c9165" stroke-width="3" stroke-linecap="round"/>
    <path d="M48 25v47" stroke="#d8bd65" stroke-width="3" stroke-linecap="round"/>
  </symbol>
  <symbol id="pdl-trail-marker" viewBox="0 0 96 96">
    <path d="M48 78V24" stroke="currentColor" stroke-width="3" stroke-linecap="round"/>
    <path d="M32 24h34l8 9-8 9H32zM64 49H30l-8 9 8 9h34z" fill="none" stroke="currentColor" stroke-width="3" stroke-linejoin="round"/>
    <path d="M39 33h18M39 58h12" stroke="#8c9165" stroke-width="3" stroke-linecap="round"/>
  </symbol>
  <symbol id="pdl-home" viewBox="0 0 96 96">
    <path d="M20 48 48 24l28 24M28 45v31h40V45" fill="none" stroke="currentColor" stroke-width="3" stroke-linecap="round" stroke-linejoin="round"/>
    <path d="M41 76V58h14v18" fill="none" stroke="#8c9165" stroke-width="3" stroke-linejoin="round"/>
  </symbol>
  <symbol id="pdl-cross" viewBox="0 0 96 96">
    <path d="M48 18v60M29 39h38" stroke="currentColor" stroke-width="4" stroke-linecap="round"/>
    <path d="M31 78h34" stroke="#d8bd65" stroke-width="3" stroke-linecap="round"/>
  </symbol>
  <symbol id="pdl-tree" viewBox="0 0 96 96">
    <path d="M48 78V48" stroke="currentColor" stroke-width="3" stroke-linecap="round"/>
    <path d="M48 20c-17 10-24 24-20 35 4 10 15 12 20 2 5 10 16 8 20-2 4-11-3-25-20-35z" fill="none" stroke="currentColor" stroke-width="3" stroke-linejoin="round"/>
    <path d="M34 78h28M48 49c-5-7-10-12-17-15M48 50c7-7 12-12 18-15" stroke="#8c9165" stroke-width="3" stroke-linecap="round"/>
  </symbol>
</svg>
