<svg xmlns="http://www.w3.org/2000/svg" style="display:none">
  <symbol id="pdl-compass" viewBox="0 0 96 96">
    <circle cx="48" cy="48" r="34" fill="none" stroke="currentColor" stroke-width="3"/>
    <path d="M58 22 51 51 38 73 45 44z" fill="none" stroke="currentColor" stroke-width="3" stroke-linejoin="round"/>
    <circle cx="48" cy="48" r="4" fill="currentColor"/>
  </symbol>
  <symbol id="pdl-lantern" viewBox="0 0 96 96">
    <path d="M36 28h24l6 14v32H30V42z" fill="none" stroke="currentColor" stroke-width="3" stroke-linejoin="round"/>
    <path d="M39 28c0-8 18-8 18 0M40 50c4-10 12-10 16 0 5 12-3 19-8 19s-13-7-8-19z" fill="none" stroke="currentColor" stroke-width="3" stroke-linecap="round"/>
    <path d="M32 42h32" stroke="#d8bd65" stroke-width="3" stroke-linecap="round"/>
  </symbol>
  <symbol id="pdl-journal" viewBox="0 0 96 96">
    <path d="M26 18h38c6 0 10 4 10 10v50H34c-5 0-8-3-8-8z" fill="none" stroke="currentColor" stroke-width="3" stroke-linejoin="round"/>
    <path d="M34 18v60M44 34h18M44 46h16" stroke="currentColor" stroke-width="3" stroke-linecap="round"/>
    <path d="M65 18v22l-7-5-7 5V18" fill="none" stroke="#d8bd65" stroke-width="3" stroke-linejoin="round"/>
  </symbol>
  <symbol id="pdl-mountain" viewBox="0 0 96 96">
    <path d="M14 74 38 32l16 27 8-13 20 28z" fill="none" stroke="currentColor" stroke-width="3" stroke-linejoin="round"/>
    <path d="M38 32 42 50l-10-4M62 46l2 13-8-4" stroke="#d8bd65" stroke-width="3" stroke-linecap="round" stroke-linejoin="round"/>
  </symbol>
  <symbol id="pdl-olive-branch" viewBox="0 0 96 96">
    <path d="M24 74C36 56 50 40 72 22" fill="none" stroke="currentColor" stroke-width="3" stroke-linecap="round"/>
    <path d="M40 54c-12-2-17 5-18 15 11 0 18-4 18-15zM51 43c-10-6-18-1-22 8 10 4 18 2 22-8zM62 32c-7-8-16-6-22 1 8 7 16 7 22-1zM58 48c12-1 18 6 20 15-12 1-19-4-20-15zM68 36c10 0 15 6 16 14-10 0-16-5-16-14z" fill="none" stroke="#8c9165" stroke-width="3" stroke-linejoin="round"/>
  </symbol>
</svg>
