<svg xmlns="http://www.w3.org/2000/svg" style="display:none">
  <symbol id="pdl-compass" viewBox="0 0 96 96">
    <circle cx="48" cy="48" r="34" fill="none" stroke="currentColor" stroke-width="3"/>
    <path d="M58 22 51 51 38 73 45 44z" fill="none" stroke="currentColor" stroke-width="3" stroke-linejoin="round"/>
    <circle cx="48" cy="48" r="4" fill="currentColor"/>
  </symbol>
  <symbol id="pdl-lantern" viewBox="0 0 96 96">
    <path d="M36 28h24l6 14v32H30V42z" fill="none" stroke="currentColor" stroke-width="3" stroke-linejoin="round"/>
    <path d="M39 28c0-8 18-8 18 0M40 50c4-10 12-10 16 0 5 12-3 19-8 19s-13-7-8-19z" fill="none" stroke="currentColor" stroke-width="3" stroke-linecap="round"/>
    <path d="M32 42h32" stroke="#d8bd65" stroke-width="3" stroke-linecap="round"/>
  </symbol>
  <symbol id="pdl-journal" viewBox="0 0 96 96">
    <path d="M26 18h38c6 0 10 4 10 10v50H34c-5 0-8-3-8-8z" fill="none" stroke="currentColor" stroke-width="3" stroke-linejoin="round"/>
    <path d="M34 18v60M44 34h18M44 46h16" stroke="currentColor" stroke-width="3" stroke-linecap="round"/>
    <path d="M65 18v22l-7-5-7 5V18" fill="none" stroke="#d8bd65" stroke-width="3" stroke-linejoin="round"/>
  </symbol>
  <symbol id="pdl-mountain" viewBox="0 0 96 96">
    <path d="M14 74 38 32l16 27 8-13 20 28z" fill="none" stroke="currentColor" stroke-width="3" stroke-linejoin="round"/>
    <path d="M38 32 42 50l-10-4M62 46l2 13-8-4" stroke="#d8bd65" stroke-width="3" stroke-linecap="round" stroke-linejoin="round"/>
  </symbol>
  <symbol id="pdl-olive-branch" viewBox="0 0 96 96">
    <path d="M24 74C36 56 50 40 72 22" fill="none" stroke="currentColor" stroke-width="3" stroke-linecap="round"/>
    <path d="M40 54c-12-2-17 5-18 15 11 0 18-4 18-15zM51 43c-10-6-18-1-22 8 10 4 18 2 22-8zM62 32c-7-8-16-6-22 1 8 7 16 7 22-1zM58 48c12-1 18 6 20 15-12 1-19-4-20-15zM68 36c10 0 15 6 16 14-10 0-16-5-16-14z" fill="none" stroke="#8c9165" stroke-width="3" stroke-linejoin="round"/>
  </symbol>
  <symbol id="pdl-branching-path" viewBox="0 0 96 96">
    <path d="M18 78c18-8 24-20 25-35 1-10 8-20 23-25" fill="none" stroke="currentColor" stroke-width="3" stroke-linecap="round"/>
    <path d="M43 48c12 1 22 9 30 24M47 38c-7-3-15-9-23-20" fill="none" stroke="#8c9165" stroke-width="3" stroke-linecap="round"/>
    <circle cx="18" cy="78" r="4" fill="#d8bd65"/>
    <circle cx="66" cy="18" r="4" fill="#d8bd65"/>
    <circle cx="73" cy="72" r="4" fill="#d8bd65"/>
  </symbol>
  <symbol id="pdl-folded-map" viewBox="0 0 96 96">
    <path d="M18 25 38 17l20 8 20-8v54l-20 8-20-8-20 8z" fill="none" stroke="currentColor" stroke-width="3" stroke-linejoin="round"/>
    <path d="M38 17v54M58 25v54" fill="none" stroke="currentColor" stroke-width="3" stroke-linecap="round"/>
    <path d="M27 56c10-16 25 11 41-10" fill="none" stroke="#8c9165" stroke-width="3" stroke-linecap="round"/>
    <path d="M66 32h.1M31 65h.1" stroke="#d8bd65" stroke-width="7" stroke-linecap="round"/>
  </symbol>
  <symbol id="pdl-open-notebook" viewBox="0 0 96 96">
    <path d="M18 24c11-5 22-5 30 1v47c-8-6-19-6-30-1zM48 25c8-6 19-6 30-1v47c-11-5-22-5-30 1z" fill="none" stroke="currentColor" stroke-width="3" stroke-linejoin="round"/>
    <path d="M29 38h9M29 50h10M58 38h10M58 50h8" stroke="#8c9165" stroke-width="3" stroke-linecap="round"/>
    <path d="M48 25v47" stroke="#d8bd65" stroke-width="3" stroke-linecap="round"/>
  </symbol>
  <symbol id="pdl-trail-marker" viewBox="0 0 96 96">
    <path d="M48 78V24" stroke="currentColor" stroke-width="3" stroke-linecap="round"/>
    <path d="M32 24h34l8 9-8 9H32zM64 49H30l-8 9 8 9h34z" fill="none" stroke="currentColor" stroke-width="3" stroke-linejoin="round"/>
    <path d="M39 33h18M39 58h12" stroke="#8c9165" stroke-width="3" stroke-linecap="round"/>
  </symbol>
  <symbol id="pdl-home" viewBox="0 0 96 96">
    <path d="M20 48 48 24l28 24M28 45v31h40V45" fill="none" stroke="currentColor" stroke-width="3" stroke-linecap="round" stroke-linejoin="round"/>
    <path d="M41 76V58h14v18" fill="none" stroke="#8c9165" stroke-width="3" stroke-linejoin="round"/>
  </symbol>
  <symbol id="pdl-cross" viewBox="0 0 96 96">
    <path d="M48 18v60M29 39h38" stroke="currentColor" stroke-width="4" stroke-linecap="round"/>
    <path d="M31 78h34" stroke="#d8bd65" stroke-width="3" stroke-linecap="round"/>
  </symbol>
  <symbol id="pdl-tree" viewBox="0 0 96 96">
    <path d="M48 78V48" stroke="currentColor" stroke-width="3" stroke-linecap="round"/>
    <path d="M48 20c-17 10-24 24-20 35 4 10 15 12 20 2 5 10 16 8 20-2 4-11-3-25-20-35z" fill="none" stroke="currentColor" stroke-width="3" stroke-linejoin="round"/>
    <path d="M34 78h28M48 49c-5-7-10-12-17-15M48 50c7-7 12-12 18-15" stroke="#8c9165" stroke-width="3" stroke-linecap="round"/>
  </symbol>
  <symbol id="pdl-scroll" viewBox="0 0 96 96">
    <path d="M28 22h34c8 0 14 6 14 14 0 6-4 10-10 10H32c-7 0-12 5-12 12s5 12 12 12h36" fill="none" stroke="currentColor" stroke-width="3" stroke-linecap="round" stroke-linejoin="round"/>
    <path d="M62 22c-6 0-10 5-10 12s4 12 10 12M32 70c6 0 10-5 10-12s-4-12-10-12M38 34h19M34 58h22" fill="none" stroke="#8c9165" stroke-width="3" stroke-linecap="round"/>
    <path d="M68 70c-4 0-7 3-7 7 0 3 2 5 5 5h8c3 0 5-2 5-5 0-4-3-7-7-7z" fill="none" stroke="#d8bd65" stroke-width="3" stroke-linejoin="round"/>
  </symbol>
  <symbol id="pdl-tree-rings" viewBox="0 0 96 96">
    <path d="M48 18c18 0 31 12 31 29 0 20-15 31-32 31-20 0-31-14-31-30 0-18 14-30 32-30z" fill="none" stroke="currentColor" stroke-width="3"/>
    <path d="M49 30c9 0 17 6 17 16 0 11-8 18-18 18-11 0-19-8-19-17 0-10 9-17 20-17zM48 42c4 0 7 3 7 7s-3 7-8 7-8-3-8-7 4-7 9-7z" fill="none" stroke="#8c9165" stroke-width="3"/>
    <path d="M20 63c10-9 20-9 29-5 10 4 18 2 27-6" fill="none" stroke="#d8bd65" stroke-width="3" stroke-linecap="round"/>
  </symbol>
  <symbol id="pdl-landmark-star" viewBox="0 0 96 96">
    <path d="M48 16 55 39l24 9-24 9-7 23-7-23-24-9 24-9z" fill="none" stroke="currentColor" stroke-width="3" stroke-linejoin="round"/>
    <circle cx="48" cy="48" r="5" fill="#d8bd65"/>
  </symbol>
  <symbol id="pdl-wax-seal" viewBox="0 0 96 96">
    <path d="M48 17c7 0 9 6 14 8 5 2 12 0 16 6 4 6-1 11 1 17 2 6 8 10 5 17-3 7-10 6-15 10-5 4-6 11-14 12-7 1-11-5-17-6-6-1-12 3-17-2-5-5-1-11-3-17-2-6-8-10-5-17 3-7 10-7 15-11 5-4 6-11 13-13 3-1 5-4 7-4z" fill="none" stroke="currentColor" stroke-width="3" stroke-linejoin="round"/>
    <path d="M34 49c7-8 21-8 28 0M39 58c5 4 13 4 18 0" fill="none" stroke="#d8bd65" stroke-width="3" stroke-linecap="round"/>
  </symbol>
  <symbol id="pdl-pressed-leaf" viewBox="0 0 96 96">
    <path d="M22 78c18-19 36-38 52-60" fill="none" stroke="currentColor" stroke-width="3" stroke-linecap="round"/>
    <path d="M38 59c-15-3-20 7-22 17 13 0 21-5 22-17zM50 45c-14-6-23 1-27 13 13 4 23 1 27-13zM61 31c-11-9-22-5-29 5 11 8 21 7 29-5zM57 53c15-1 22 9 25 20-15 1-24-6-25-20zM68 38c13 1 20 10 21 20-13 0-21-8-21-20z" fill="none" stroke="#8c9165" stroke-width="3" stroke-linejoin="round"/>
  </symbol>
  <symbol id="pdl-constellation" viewBox="0 0 96 96">
    <path d="M18 66 35 38l20 9 23-25" fill="none" stroke="currentColor" stroke-width="2.5" stroke-linecap="round"/>
    <path d="M35 38 54 70l24-48" fill="none" stroke="#8c9165" stroke-width="2.5" stroke-linecap="round"/>
    <circle cx="18" cy="66" r="4" fill="#d8bd65"/><circle cx="35" cy="38" r="4" fill="currentColor"/><circle cx="55" cy="47" r="4" fill="#d8bd65"/><circle cx="54" cy="70" r="4" fill="currentColor"/><circle cx="78" cy="22" r="4" fill="#d8bd65"/>
  </symbol>
  <symbol id="pdl-sextant" viewBox="0 0 96 96">
    <path d="M26 70c16-2 31-13 42-31M26 70h42M30 66l9 12M55 42l19 18" fill="none" stroke="currentColor" stroke-width="3" stroke-linecap="round"/>
    <path d="M28 70a42 42 0 0 1 42-42" fill="none" stroke="currentColor" stroke-width="3"/>
    <path d="M69 28h10M66 38l10 6M42 70c2-10 8-18 17-25" fill="none" stroke="#8c9165" stroke-width="3" stroke-linecap="round"/>
    <circle cx="26" cy="70" r="4" fill="#d8bd65"/>
  </symbol>
  <symbol id="pdl-telescope" viewBox="0 0 96 96">
    <path d="M18 58 68 31l8 15-50 27z" fill="none" stroke="currentColor" stroke-width="3" stroke-linejoin="round"/>
    <path d="M66 31l10-5 9 17-10 5M35 49l8 15M49 41l8 15M46 61l-6 20M55 56l12 16" fill="none" stroke="#8c9165" stroke-width="3" stroke-linecap="round"/>
  </symbol>
  <symbol id="pdl-sea-chart" viewBox="0 0 96 96">
    <path d="M18 24 38 17l20 8 20-8v55l-20 7-20-8-20 8z" fill="none" stroke="currentColor" stroke-width="3" stroke-linejoin="round"/>
    <path d="M38 17v54M58 25v54M26 62c13-19 25 8 43-16" fill="none" stroke="#8c9165" stroke-width="3" stroke-linecap="round"/>
    <path d="M70 30 74 41 63 37zM29 35h.1M68 64h.1" stroke="#d8bd65" stroke-width="6" stroke-linecap="round" stroke-linejoin="round"/>
  </symbol>
  <symbol id="pdl-feather-pen" viewBox="0 0 96 96">
    <path d="M24 76c20-10 37-29 49-57-22 4-40 18-48 38-3 7-3 13-1 19z" fill="none" stroke="currentColor" stroke-width="3" stroke-linejoin="round"/>
    <path d="M28 70c13-18 28-32 45-51M39 56h18M47 44h17M31 68l-8 9" fill="none" stroke="#8c9165" stroke-width="3" stroke-linecap="round"/>
  </symbol>
  <symbol id="pdl-rope-knot" viewBox="0 0 96 96">
    <path d="M18 48c14-20 28-20 42 0 8 12 16 12 24 0M18 48c14 20 28 20 42 0 8-12 16-12 24 0" fill="none" stroke="currentColor" stroke-width="3" stroke-linecap="round"/>
    <path d="M36 48c8-8 16-8 24 0M36 48c8 8 16 8 24 0" fill="none" stroke="#d8bd65" stroke-width="3" stroke-linecap="round"/>
  </symbol>
</svg>
